<?xml version="1.0" encoding="UTF-8"?>
<svg id="_レイヤー_2" data-name="レイヤー 2" xmlns="http://www.w3.org/2000/svg" viewBox="0 0 100 57">
  <defs>
    <style>
      .cls-1 {
        fill: #b6d8e5;
      }

      .cls-2 {
        fill: #9dc9d6;
      }

      .cls-3 {
        fill: #cde3eb;
      }
    </style>
  </defs>
  <g id="_レイヤー_103" data-name="レイヤー 103">
    <g>
      <path class="cls-2" d="M59.83,14.03c3.24-15.01,21.3-14.11,22.39-.19,4.36-5.66,15.56-.61,17.04,5.57,3.54,9.56-6.3,20.27-15.76,15.2.41,13.46-18.71,15.3-20.85,2.01-20.11,7.74-26.98-10.11-12.06-12.39-7.33-2.76-10.74-10.9-.22-13.92,3.05-.63,9.62.26,9.45,3.72Z"/>
      <path class="cls-1" d="M14.8,16.59c-2.24-6.02,1.5-13.57,7.63-15.39s13.34,2.48,14.71,8.76c1.27-7.16,9.89-11.9,16.59-9.19,6.71,2.71,9.7,12.03,5.91,18.22,5.48-2.86,10.97-3.97,15.34.41,4.38,4.39,3.16,12.6.93,15.88-3.73,5.48-14.63,12.24-20.37.23.77,7.38-4.88,15.26-12.16,13.47s-10-5.84-9.09-13.32c-.92,2.97-7.58,12.96-17.24,12.37-4-.24-8.1-1.07-11.29-3.5C.69,40.66-1.28,33.3.85,27.26s8.05-10.42,13.95-10.67Z"/>
      <path class="cls-3" d="M33.75,37.26c-2.04-2.43-2.15-6.28-.25-8.82s5.61-3.5,8.49-2.21,4.64,4.72,4.03,7.84c.1-4.8,3.84-9.27,8.52-10.19s9.81,1.79,11.71,6.19c.93,2.15,1.07,4.8-.25,6.72s-4.37,2.63-6.06,1.02c3.04,1.45,5.31,4.61,5.35,8s-2.37,6.75-5.67,7.45-7.02-1.68-7.49-5.04c.88,4.02-2.37,8.44-6.45,8.76s-8.86-2.63-8.62-6.74c-2.7,4.18-7.76,5.07-12.18,2.81s-6.48-8.39-4.1-12.77,8.88-5.88,12.98-3.02Z"/>
    </g>
  </g>
</svg>