<?xml version="1.0" encoding="UTF-8"?>
<svg id="_レイヤー_2" data-name="レイヤー 2" xmlns="http://www.w3.org/2000/svg" viewBox="0 0 120 118">
  <defs>
    <style>
      .cls-1 {
        fill: #f9f5f7;
      }

      .cls-2 {
        fill: #007dba;
      }
    </style>
  </defs>
  <g id="_レイヤー_100" data-name="レイヤー 100">
    <g>
      <path class="cls-1" d="M8.55,48.59c-2.4-.42-4.05-3.11-3.25-5.3.8-2.19,3.84-3.34,6-2.26-4.33-1.36-6.1-7.3-3.16-10.61,2.94-3.31,9.4-2.67,11.54,1.15-3.72-2.43-4.09-8.31-.7-11.15,3.38-2.84,9.48-1.75,11.55,2.06-3.5-2.99-2.83-9.22,1.24-11.47s10.1.25,11.12,4.62c-3.5-2.39-4.59-7.55-2.09-10.89,2.5-3.34,8.26-3.96,11.3-1.07,3.05,2.9,2.19,8.61-1.7,10.38,2.43-3.01,6.23-5.57,10.15-4.87s6.37,6.18,3.21,8.49c.05-3.59.92-7.4,3.59-9.94s7.55-3.18,10.17-.58.63,8.08-3.14,7.8c2.46-2.02,6.43-2.14,9.02-.27,2.59,1.87,3.54,5.53,2.16,8.32,1.39-4.92,7.95-7.8,12.79-5.63,4.84,2.18,6.66,8.83,3.55,12.97,2.94-1.89,7.58-.42,8.75,2.76s-1.5,7.07-5.04,7.33c3.92-.16,7.85,1.95,9.74,5.22s1.63,7.56-.82,11.28c-36.68-.45-73.36-.91-110.04-1.36-.85-3.04,1.04-6.54,4.07-6.99Z"/>
      <path class="cls-2" d="M114.52,58.75h-.02l-110.04-1.36c-.81,0-1.52-.55-1.73-1.33-.58-2.07-.21-4.4.99-6.24.33-.51.71-.97,1.13-1.36-.28-.32-.54-.67-.76-1.05-.87-1.5-1.06-3.24-.51-4.75.48-1.33,1.52-2.44,2.88-3.14-.55-.81-.98-1.72-1.26-2.72-.78-2.78-.19-5.62,1.57-7.6,1.78-2.01,4.66-3.02,7.68-2.7.14.01.28.03.42.05-.01-.11-.02-.23-.03-.35-.17-2.81.94-5.5,2.96-7.19,2.03-1.7,4.97-2.39,7.87-1.84.26.05.52.11.77.17,0-.34.01-.68.05-1.03.3-2.97,1.94-5.56,4.39-6.91,1.97-1.09,4.39-1.35,6.74-.78.06-1.83.65-3.56,1.72-4.99,1.53-2.05,4.04-3.37,6.88-3.61,2.75-.24,5.35.61,7.14,2.31,1.48,1.41,2.33,3.39,2.4,5.51,1.7-.6,3.44-.77,5.12-.47,1.18.21,2.29.75,3.24,1.52.56-.94,1.22-1.77,1.98-2.5,3.21-3.04,9.22-4.02,12.71-.55,1.46,1.45,2.02,3.62,1.58,5.75,1.46.2,2.87.73,4.07,1.6,1.42,1.02,2.45,2.48,3.02,4.08.67-.5,1.4-.95,2.2-1.32,3.07-1.43,6.59-1.52,9.41-.25,2.82,1.27,4.99,3.91,5.81,7.08.43,1.66.47,3.34.14,4.9.86.01,1.73.16,2.58.44,2.27.76,4,2.34,4.73,4.34s.43,4.27-.84,6.23c-.2.31-.42.6-.65.87,2.54,1.04,4.73,2.86,6.06,5.18,2.24,3.9,1.91,8.94-.87,13.17-.34.51-.91.82-1.53.82ZM6.11,53.78l107.38,1.33c1.56-2.88,1.68-6.08.26-8.55-1.54-2.67-4.87-4.46-8.08-4.31-.99.02-1.84-.72-1.89-1.71-.06-.99.69-1.84,1.68-1.92,1.16-.09,2.27-.79,2.98-1.89.64-.99.82-2.09.48-3.01-.35-.94-1.27-1.75-2.47-2.15-1.29-.43-2.63-.32-3.58.29-.74.48-1.72.35-2.32-.29s-.65-1.62-.13-2.33c1.12-1.49,1.47-3.52.94-5.55-.55-2.11-1.96-3.85-3.78-4.67-1.87-.84-4.25-.75-6.37.23-1.62.75-2.87,1.91-3.55,3.27-.13.43-.29.86-.49,1.27-.42.84-1.41,1.23-2.29.89-.88-.34-1.36-1.28-1.1-2.19.12-.42.27-.83.44-1.22.43-1.85-.32-3.99-1.91-5.14-1.07-.77-2.49-1.09-3.86-.95-1.14,1.1-2.63,1.68-4.22,1.56-.74-.05-1.38-.55-1.61-1.26-.23-.71,0-1.48.58-1.95.95-.78,2.06-1.33,3.23-1.66.04-.08.08-.15.11-.21.44-.97.53-2.39-.33-3.24-1.92-1.91-5.67-1.24-7.62.61-.95.9-1.61,2.01-2.07,3.18.13.33.24.68.32,1.03.55,2.36-.21,4.56-2.02,5.88-.56.41-1.3.46-1.91.15-.61-.32-1-.95-.99-1.64.03-1.84.25-3.54.66-5.08-.56-.77-1.38-1.42-2.37-1.6-1.98-.35-3.96.41-5.65,1.6-.81,1.38-1.99,2.47-3.42,3.13-.77.35-1.68.13-2.2-.54-.52-.66-.51-1.6.02-2.25.85-1.06,1.78-1.98,2.74-2.75.14-.35.25-.72.32-1.11.27-1.58-.18-3.1-1.2-4.07-1.03-.98-2.61-1.46-4.32-1.32-1.77.15-3.37.96-4.26,2.16-.85,1.14-1.17,2.62-.91,4.18.03.15.06.3.09.45,1.64,1.24,2.79,2.92,3.22,4.76.17.73-.13,1.49-.75,1.91-.62.42-1.44.42-2.06,0-1.55-1.05-2.75-2.57-3.48-4.33-.15-.08-.31-.16-.47-.23-1.82-.8-3.78-.79-5.26.02-1.41.78-2.35,2.31-2.54,4.11-.11,1.05.07,2.07.48,2.93.62.58,1.13,1.25,1.54,1.99.42.77.23,1.73-.46,2.28-.68.55-1.67.54-2.33-.04-.64-.55-1.18-1.19-1.62-1.9-.74-.58-1.68-1-2.73-1.2-1.83-.35-3.64.04-4.84,1.05-1.14.96-1.77,2.53-1.67,4.2.05.81.26,1.57.61,2.25.9.66,1.65,1.48,2.18,2.42.41.73.27,1.65-.35,2.22-.62.57-1.54.65-2.24.19-.9-.59-1.67-1.35-2.28-2.24-.67-.37-1.47-.62-2.34-.71-1.83-.19-3.58.38-4.56,1.49-.94,1.06-1.23,2.64-.79,4.23.41,1.47,1.34,2.63,2.55,3.22.29.09.58.2.85.34.85.42,1.23,1.43.87,2.31-.36.88-1.33,1.34-2.24,1.05-.25-.08-.49-.17-.73-.27-.5-.11-1.09-.06-1.64.16-.67.26-1.18.74-1.37,1.26-.18.51-.1,1.12.23,1.7.37.64.98,1.09,1.62,1.2.88.15,1.52.92,1.51,1.81-.01.89-.67,1.64-1.55,1.77-1.08.16-1.75.96-2.05,1.42-.39.6-.62,1.29-.66,1.98Z"/>
    </g>
    <path class="cls-2" d="M.4,52.56c-3.82,28.1,20.01,54.47,46.44,59.23-1.42,1.9-1.39,4.17-1.59,4.93,6.4,1.92,25.31,1.4,30.78.31.05-.57-.17-2.97-1.35-5.02,23.66-3.83,47.9-32.26,45.09-60.24-.14-1.37-1.31-2.41-2.69-2.41l-113.47.35c-1.64,0-3,1.23-3.22,2.85Z"/>
    <g id="_レイヤー_101" data-name="レイヤー 101">
      <path class="cls-2" d="M49.36,23.49c-3.68-.98-7.96.67-9.83,4.01-1.04,1.84-1.25,4.26-.14,6.12.87,1.52,2.48,2.46,4.13,2.96,1.23.36,3.05,1.03,3.85-.38.87-1.23-.21-2.82-1.61-2.92-.04-.01-.07-.02-.1-.03-3.23-1.05-3.17-1.63-2.93-3.1.37-1.66,2.83-2.92,4.45-2.92,1.01,0,2.09.61,3-.09,1.48-.94.93-3.41-.81-3.65Z"/>
      <path class="cls-2" d="M79.61,37.67c-.66-3.34-4-6.18-7.48-4.98-1.88.63-3.49,2.09-4.24,3.92-.28.7-.62,1.45-.32,2.2.53,1.65,3.04,1.76,3.71.16.77-2.11,1.06-1.85,1.84-2.39.16-.06.32-.11.48-.15.02,0,.04,0,.07-.01.07,0,.13,0,.17-.01.12.01.24.04.35.06.08.03.17.07.26.12.18.13.34.26.5.42.12.15.31.41.45.64.03.07.09.19.16.34.72,1.56.21,1.4.76,3.03.52,1.22,2.36,1.39,3.17.36.82-1.06.35-2.5.12-3.7Z"/>
      <path class="cls-2" d="M28.55,37.14c-3.9-1.95-9.53.59-9.41,5.25,0,1.68,1.24,5.49,3.44,4.89,1.32-.2,1.98-1.93,1.19-2.99-.05-.09-.11-.18-.16-.27-.02-.05-.05-.12-.1-.23-.11-.27-.2-.56-.27-.85-.02-.11-.04-.26-.05-.41,0-.06,0-.11,0-.17.01-.12.03-.23.06-.34.05-.12.09-.24.15-.35.09-.12.18-.23.29-.34.13-.1.32-.24.51-.35.03-.01.05-.02.09-.04.25-.11.51-.19.77-.26.08-.01.18-.03.3-.04.11,0,.21-.01.29-.02.22.02.44.05.65.1.2.1.99.4,1.3.37,2.24.19,3.01-3.08.96-3.97Z"/>
      <path class="cls-2" d="M99.31,39.34c-3-1.62-6.69.25-7.27,3.56-.26,1.21-.11,2.47.28,3.63.27.78.63,1.57,1.43,1.93,1.95.93,3.95-1.44,2.69-3.19-.31-.78-.44-.44-.52-1.81,0-.03.01-.06.02-.1.04-.11.09-.21.15-.31.02-.03.04-.06.07-.1.07-.08.11-.13.15-.17.1-.08.2-.14.3-.21.04-.01.08-.03.12-.04.07,0,.14-.01.2-.02.13.01.26.02.39.05.16.06.31.13.46.21.1.08.21.17.29.25.19.22.37.45.52.69.26.55.78.97,1.39,1.07,1.17.23,2.29-.82,2.18-2-.32-1.48-1.55-2.71-2.84-3.44Z"/>
    </g>
  </g>
</svg>