<?xml version="1.0" encoding="UTF-8"?>
<svg id="_レイヤー_2" data-name="レイヤー 2" xmlns="http://www.w3.org/2000/svg" xmlns:xlink="http://www.w3.org/1999/xlink" viewBox="0 0 153.09 100.05">
  <defs>
    <style>
      .cls-1 {
        fill: url(#linear-gradient);
      }
    </style>
    <linearGradient id="linear-gradient" x1="55.02" y1="4.6" x2="100.98" y2="92.49" gradientUnits="userSpaceOnUse">
      <stop offset="0" stop-color="#83a7b6"/>
      <stop offset="1" stop-color="#76889e"/>
    </linearGradient>
  </defs>
  <g id="_レイヤー_113のコピー" data-name="レイヤー 113のコピー">
    <path class="cls-1" d="M37.94,27.91c.71.38,1.58-.05,1.68-.85C41.48,12.6,54.85.31,69.5,0c14.09-.29,27.46,10.53,30.66,24.14.24,1.02,1.58,1.22,2.11.31,5.91-10.02,18.68-15.74,30.06-12.96,12.49,3.04,21.77,15.96,20.67,28.77-1.07,12.43-11.77,23.28-24.12,24.72-.64.07-1.09.62-1.03,1.26,1.05,12.63-7.5,25.53-19.64,29.3-11.55,3.59-25.11-1.46-31.82-11.43-.55-.82-1.79-.59-2.05.37-2.81,10.58-15.23,18.05-25.86,14.76-10.07-3.12-16-15.13-13.48-25.16.26-1.03-.87-1.83-1.75-1.23-8.6,5.78-22.12,3.59-28.61-4.92-7.46-9.78-5.51-24.88,3-33.76s20.76-11.44,30.31-6.27Z"/>
  </g>
</svg>