<?xml version="1.0" encoding="UTF-8"?>
<svg id="_レイヤー_2" data-name="レイヤー 2" xmlns="http://www.w3.org/2000/svg" viewBox="0 0 91 120">
  <defs>
    <style>
      .cls-1 {
        fill: #f1ebf2;
      }

      .cls-2 {
        fill: #007bbb;
      }

      .cls-3 {
        fill: #007cbb;
      }

      .cls-4 {
        fill: #fff;
      }

      .cls-5 {
        fill: #f6f5f7;
      }
    </style>
  </defs>
  <g id="_レイヤー_95のコピー_2" data-name="レイヤー 95のコピー 2">
    <g id="_レイヤー_99のコピー_2" data-name="レイヤー 99のコピー 2">
      <g id="_レイヤー_98のコピー_2" data-name="レイヤー 98のコピー 2">
        <path class="cls-5" d="M.68,102.53C1.31,78.18-.03,45.95,0,15.54,0,9.77-.15.48,13,.23,21.87.07,49.75-.07,61.97.04c1.86.02,3.64.7,4.99,1.89,4.98,4.4,18.09,16.58,21.23,19.45,1.35,1.23,2.1,2.93,2.13,4.69.42,23.22.19,45.23.66,68.55.35,17.42-4.31,19.58-18.74,19.76-17.35.22-38.04.24-54.98.19-11.88-.04-16.47-2.95-16.58-12.04Z"/>
        <path class="cls-2" d="M88.07,27.44h-.23c-4.68-.02-12.51-.06-15.13-.14-10.89-.32-11.34-8.46-11.49-11.13-.15-2.76-.19-9.03-.19-13.8,0-1.1.9-2,2-2h0c1.1,0,2,.9,2,2,0,6.67.07,11.49.18,13.58.25,4.41,1.61,7.18,7.61,7.35,2.58.08,10.38.11,15.04.13h.22c1.1,0,2,.91,1.99,2.01,0,1.1-.9,1.99-2,1.99Z"/>
        <path class="cls-2" d="M17.2,56.07c-1.1,0-1.99-.88-2-1.98-.01-1.1.88-2.01,1.98-2.02l58.38-.6c1.08-.03,2.01.88,2.02,1.98s-.88,2.01-1.98,2.02l-58.38.6h-.02Z"/>
        <path class="cls-2" d="M17.2,74.6c-1.1,0-1.99-.88-2-1.98-.01-1.1.88-2.01,1.98-2.02l58.38-.6c1.08,0,2.01.88,2.02,1.98s-.88,2.01-1.98,2.02l-58.38.6h-.02Z"/>
        <path class="cls-2" d="M18,93.13c-1.1,0-1.99-.88-2-1.98-.01-1.1.88-2.01,1.98-2.02l58.38-.6h.02c1.09,0,1.99.88,2,1.98.01,1.1-.88,2.01-1.98,2.02l-58.38.6h-.02Z"/>
        <path class="cls-2" d="M17.2,38.75c-1.1,0-1.99-.88-2-1.98-.01-1.1.88-2.01,1.98-2.02l58.38-.6c1.08-.02,2.01.88,2.02,1.98s-.88,2.01-1.98,2.02l-58.38.6h-.02Z"/>
        <g>
          <ellipse class="cls-1" cx="48.96" cy="59.84" rx="23.82" ry="23.87"/>
          <path class="cls-2" d="M48.96,86.21c-14.51,0-26.32-11.83-26.32-26.37s11.81-26.37,26.32-26.37,26.32,11.83,26.32,26.37-11.81,26.37-26.32,26.37ZM48.96,38.47c-11.76,0-21.32,9.59-21.32,21.37s9.56,21.37,21.32,21.37,21.32-9.59,21.32-21.37-9.56-21.37-21.32-21.37Z"/>
        </g>
        <path class="cls-3" d="M57.03,82.87c4.85,11,10.68,24.48,16.72,34.88.85,1.46,3.95,3.23,6.56,1.61,2.08-1.3,2.4-4.72,1.55-6.3-6.09-11.34-12.99-22.27-18.88-33.58-1.25,2.07-3.69,3.36-5.95,3.39Z"/>
        <g>
          <path class="cls-4" d="M36.3,72.53c-1.39-.54-2.21-1.97-2-3.45.86-6.16,4.4-11.94,9.57-15.4,5.3-3.54,12.18-4.57,18.61-3.13,1.34.3,2.4,1.36,2.69,2.71.96,4.35-1.53,9.96-4.3,13.5-3.24,4.14-7.01,6.25-12.2,7.11-4.29.71-8.71.11-12.38-1.33Z"/>
          <path class="cls-2" d="M44.98,75.66c-3.13,0-6.31-.59-9.23-1.74h0c-2.03-.8-3.24-2.88-2.94-5.05.92-6.63,4.74-12.77,10.23-16.44,5.53-3.7,12.74-4.92,19.77-3.35,1.91.42,3.41,1.94,3.83,3.85,1.05,4.79-1.54,10.86-4.58,14.74-3.4,4.36-7.45,6.72-13.13,7.67-1.29.21-2.61.32-3.94.32ZM36.84,71.13c3.67,1.44,7.78,1.88,11.58,1.25,4.95-.82,8.31-2.78,11.26-6.55,2.52-3.23,4.85-8.44,4.01-12.25-.17-.78-.78-1.39-1.55-1.56-6.24-1.39-12.6-.33-17.45,2.92-4.78,3.2-8.12,8.56-8.92,14.36-.11.8.33,1.56,1.06,1.85h0Z"/>
        </g>
        <path class="cls-2" d="M55.3,71.69c4.1-2.36,5.26-8.41,2.55-13.74-1.77-3.47-4.75-5.79-7.81-6.45,1.38-1.86,1.41-4.24.87-6.43-.36,2.47-1.42,4.33-2.69,6.24-1.14,0-2.25.26-3.29.79-.06.03-.12.08-.18.11-1.97-.51-3.7-1.78-5.28-2.98-.37-.3-.73-.63-1.08-.96.45,1.08,1.02,2.14,1.86,2.97.92.95,2.16,1.54,3.45,1.69-.85.69-1.54,1.55-2.04,2.55-2.75,1.19-5.77,1.84-8.77,1.24,2.69,1.9,6.24,1.18,8.6-.9-1.3,2.88-1.19,6.69.59,10.19,2.78,5.46,8.56,8.08,12.92,5.85.09-.05.17-.1.26-.15.45.33.68.86.97,1.32.49.83,1.13,1.56,1.8,2.25-.55-1.34-1.23-3.12-2.72-3.6Z"/>
        <path class="cls-2" d="M49.96,78.26c.32-1.72.65-3.37,1.31-4.93-1.37,1.23-1.76,3.18-1.31,4.93Z"/>
        <path class="cls-2" d="M59.5,68.48c1.74,0,3.4.71,5.12.9-1.46-1-3.43-1.75-5.12-.9Z"/>
      </g>
    </g>
  </g>
</svg>