<?xml version="1.0" encoding="UTF-8"?>
<svg id="_レイヤー_2" data-name="レイヤー 2" xmlns="http://www.w3.org/2000/svg" xmlns:xlink="http://www.w3.org/1999/xlink" viewBox="0 0 84 100">
  <defs>
    <style>
      .cls-1 {
        fill: url(#_新規スウォッチ_32-2);
      }

      .cls-2 {
        fill: url(#_新規スウォッチ_32-4);
      }

      .cls-3 {
        fill: url(#_新規スウォッチ_32-3);
      }

      .cls-4 {
        fill: url(#_新規スウォッチ_32-6);
      }

      .cls-5 {
        fill: url(#_新規スウォッチ_32-7);
      }

      .cls-6 {
        fill: url(#_新規スウォッチ_32-5);
      }

      .cls-7 {
        fill: url(#_新規スウォッチ_32);
      }
    </style>
    <linearGradient id="_新規スウォッチ_32" data-name="新規スウォッチ 32" x1="13.12" y1="11.7" x2="75.46" y2="52.2" gradientUnits="userSpaceOnUse">
      <stop offset="0" stop-color="#e5ddb8"/>
      <stop offset=".27" stop-color="#c4ccb7"/>
      <stop offset=".76" stop-color="#90b1b6"/>
      <stop offset="1" stop-color="#7ca7b6"/>
    </linearGradient>
    <linearGradient id="_新規スウォッチ_32-2" data-name="新規スウォッチ 32" x1="20.27" y1="57.05" x2="24.91" y2="60.07" xlink:href="#_新規スウォッチ_32"/>
    <linearGradient id="_新規スウォッチ_32-3" data-name="新規スウォッチ 32" x1="15.4" y1="67.87" x2="21.2" y2="71.64" xlink:href="#_新規スウォッチ_32"/>
    <linearGradient id="_新規スウォッチ_32-4" data-name="新規スウォッチ 32" x1="26.59" y1="67.99" x2="31.98" y2="71.49" xlink:href="#_新規スウォッチ_32"/>
    <linearGradient id="_新規スウォッチ_32-5" data-name="新規スウォッチ 32" x1="20.77" y1="82.47" x2="26.4" y2="86.13" xlink:href="#_新規スウォッチ_32"/>
    <linearGradient id="_新規スウォッチ_32-6" data-name="新規スウォッチ 32" x1="37.76" y1="65.93" x2="44.7" y2="70.43" xlink:href="#_新規スウォッチ_32"/>
    <linearGradient id="_新規スウォッチ_32-7" data-name="新規スウォッチ 32" x1="29.57" y1="87" x2="38.12" y2="92.55" xlink:href="#_新規スウォッチ_32"/>
  </defs>
  <g id="_レイヤー_93" data-name="レイヤー 93">
    <g>
      <path class="cls-7" d="M77.37,13.81c-1.49-3.3-8.15-5.38-11.57.87,2.98-19.03-25.42-19.79-20.75-.94-8.36-19.13-34.21-7.83-22.68,7.05C6.22,15.54-8.17,35.53,5.39,47.45c5.87,4.54,16.13,2.61,19.38-.97-3.63,7.85,4.12,6.53,7.69,2.87-1.16,2.2-3.57,10.95-.65,11.96,3.89,1.34,11.13-9.28,12.22-10-1.31,3.91.16,7.95,4.44,4.55,2.97-2.44,4.91-5.9,6.22-9.56,19.64,15.69,44.65-15.8,17.12-21.22,6.59-3.79,6.67-8.8,5.56-11.28Z"/>
      <path class="cls-1" d="M21.71,62.43c3.25.55,5.47-7.01,1.61-7.89-2.76-.41-5.59,7.21-1.61,7.89Z"/>
      <path class="cls-3" d="M19.95,64.41c-6.38-.08-7.41,14.86-.77,9.84,2.56-1.94,4.86-9.79.77-9.84Z"/>
      <path class="cls-2" d="M27.62,75.6c3.07.95,7.49-10.27,3.96-11.37-4.35-.77-8.66,9.94-3.96,11.37Z"/>
      <path class="cls-6" d="M26.26,78.37c-5.01-1.59-10.42,14.01-3.39,11.71,3.35-1.1,6.33-10.78,3.39-11.71Z"/>
      <path class="cls-4" d="M43.48,60.09c-5.23.01-8.74,15.47-4.81,16.35,3.92.88,11.81-15.83,4.81-16.35Z"/>
      <path class="cls-5" d="M36.09,79.76c-3.13.69-5.21,5.31-6.5,8.15-1.17,3.73-4.67,11.57,1.82,12.09,5.07.26,12.72-21.9,4.68-20.24Z"/>
    </g>
  </g>
</svg>