<?xml version="1.0" encoding="UTF-8"?>
<svg id="_レイヤー_2" data-name="レイヤー 2" xmlns="http://www.w3.org/2000/svg" viewBox="0 0 300 300">
  <defs>
    <style>
      .cls-1 {
        fill: #007db9;
      }
    </style>
  </defs>
  <g id="_レイヤー_106のコピー" data-name="レイヤー 106のコピー">
    <path class="cls-1" d="M238.01,300H61.99c-34.18,0-61.99-27.81-61.99-61.99V61.99C0,27.81,27.81,0,61.99,0h176.02c34.18,0,61.99,27.81,61.99,61.99v176.02c0,34.18-27.81,61.99-61.99,61.99ZM61.99,20.77c-22.73,0-41.22,18.49-41.22,41.22v176.02c0,22.73,18.49,41.22,41.22,41.22h176.02c22.73,0,41.22-18.49,41.22-41.22V61.99c0-22.73-18.49-41.22-41.22-41.22H61.99Z"/>
    <path class="cls-1" d="M258.08,140.85c-32.15-16.87-63.04-28.79-81.37-34.62-10.88-3.46-44.11-7.76-55.83-6.22-21.54,2.84-31.11,11.34-44.11,9.26-3.33-.53-5.42-3.89-4.58-7.16.69-2.67,1.33-5.67,1.39-7.32.72-9.45-4.6-18.98-14.69-18.6-9.69.36-7.77,5.16-13.74,6.4-2.12.48-3.48,1.74-4.81,3.15-.37.4-.11,1.03.43,1.07,5.13.3,12.79,4.43,15.62,7.59,1.94,2.17,4.34,7.98,4.3,10.82-.15,9.82,4.76,26.25,11.41,33.41,11.73,12.64,22.89,20.74,50.24,28.59,2.01.58,3.09,1.57,3.64,2.77-1.65,5.6-3.4,12.62,1.96,15.81-.97,2.35-3.12,6.12-6.18,12.82-4.02,8.8-4.2,9.27-8.99,14.11-3.82,3.86-24.43,5.64-25.23,6.72,1.85.93,9.09,1.18,11.55.85.07,0,.09.09.02.11-.56.16-1.3.29-1.68.64-.15.14-.07.4.13.42,3.55.34,11.94,1.84,17.53-3.33.53-.49,1.42-.47,1.95.02.89.82,1.48,1.44,2.02,1.73.39.21.84-.18.7-.6-.99-3.07-1.81-3.57-.69-5.21,1.7-2.5,4.73-7.29,8.13-13.68,2.25-4.21,4.95-10.22,6.42-13.84,4.01-2.11,6.56-10.6,8-17.06,1.04-.19,2.1-.36,3.13-.42.65,1.47,2.02,3.16,4.39,5.1,3.29,2.69,8.7,11.02,14.81,11.42,2.97,6.79,9.32,22.19,10.45,28.62.47,2.7-7.27,4.45-10.52,4.72-3.62.36-7.17.59-10.26,2.74-.11.07-.09.24.02.29,2,.85,4.86-.21,6.98.22.06.24-.25.41-.61.56-.41.17-.32.78.12.83,4.17.43,12.89.39,17.37-2.17,1.78-1.02,2.68-3.08,2.3-5.09-.09-.45-.17-.9-.23-1.36-.05-.46.49-.73.82-.41.74.71,5.22,1.68,5.94.63-7.48-2.1-8.45-7.85-11.01-16.57-1.67-5.66-3.33-10.51-5.44-15.42.08-.08.17-.15.25-.23,4.09-3.98-2.74-11.99-8.51-17.56,17.24-4.95,24.94-16.03,34.48-18.05,5.6-1.18,17.69,2.15,26.74,5.12,8.3,2.72,17.31,2.53,25.41-.76,7.78-3.16,15-8.16,9.81-10.88Z"/>
  </g>
</svg>