<?xml version="1.0" encoding="UTF-8"?>
<svg id="_レイヤー_2" data-name="レイヤー 2" xmlns="http://www.w3.org/2000/svg" viewBox="0 0 300 300">
  <defs>
    <style>
      .cls-1 {
        fill: #007db9;
      }
    </style>
  </defs>
  <g id="_レイヤー_106" data-name="レイヤー 106">
    <path class="cls-1" d="M161.52,300H61.99c-34.18,0-61.99-27.81-61.99-61.99V61.99C0,27.81,27.81,0,61.99,0h96.68c5.74,0,10.39,4.65,10.39,10.38s-4.65,10.38-10.39,10.38H61.99c-22.73,0-41.22,18.49-41.22,41.22v176.02c0,22.73,18.49,41.22,41.22,41.22h99.53c5.74,0,10.39,4.65,10.39,10.38s-4.65,10.38-10.39,10.38Z"/>
    <path class="cls-1" d="M82.31,141.89c32.11-16.85,62.98-28.76,81.28-34.58,10.87-3.46,44.06-7.75,55.78-6.21,21.52,2.84,31.08,11.33,44.07,9.25,3.33-.53,5.41-3.89,4.57-7.15-.69-2.67-1.33-5.66-1.39-7.31-.72-9.44,4.59-18.96,14.68-18.58,9.68.36,7.76,5.15,13.73,6.4,2.11.48,3.48,1.74,4.81,3.15.37.39.11,1.03-.43,1.07-5.12.3-12.78,4.42-15.61,7.58-1.94,2.17-4.34,7.97-4.3,10.81.15,9.81-4.76,26.22-11.4,33.38-11.72,12.63-22.87,20.72-50.19,28.56-2.01.58-3.09,1.57-3.64,2.77,1.65,5.59,3.39,12.6-1.96,15.79.97,2.35,3.12,6.12,6.17,12.81,4.01,8.79,4.2,9.26,8.98,14.09,3.82,3.86,24.4,5.63,25.2,6.72-1.85.93-9.08,1.18-11.54.85-.07,0-.09.09-.02.11.56.16,1.3.29,1.68.64.15.14.07.4-.13.42-3.55.34-11.93,1.84-17.51-3.33-.53-.49-1.42-.46-1.95.02-.89.82-1.48,1.44-2.02,1.73-.39.21-.83-.18-.7-.6.99-3.07,1.81-3.57.69-5.2-1.7-2.5-4.72-7.29-8.13-13.67-2.24-4.21-4.94-10.21-6.41-13.82-4.01-2.1-6.56-10.59-7.99-17.04-1.04-.19-2.1-.36-3.13-.42-.65,1.47-2.02,3.16-4.38,5.09-3.29,2.69-8.69,11.01-14.79,11.41-2.97,6.78-9.31,22.16-10.43,28.59-.47,2.7,7.26,4.44,10.51,4.71,3.61.36,7.16.59,10.25,2.74.11.07.09.24-.02.29-2,.85-4.85-.21-6.97.22-.06.24.25.41.61.56.41.17.32.78-.12.83-4.17.43-12.88.39-17.36-2.17-1.77-1.02-2.68-3.07-2.3-5.08.09-.45.17-.9.23-1.36.05-.46-.49-.73-.82-.41-.74.71-5.21,1.68-5.94.63,7.47-2.1,8.44-7.84,11-16.55,1.66-5.66,3.32-10.5,5.43-15.41-.08-.08-.16-.15-.25-.23-4.08-3.98,2.74-11.98,8.5-17.54-17.22-4.94-24.92-16.02-34.44-18.03-5.6-1.18-17.67,2.15-26.71,5.11-8.29,2.72-17.3,2.52-25.38-.76-7.78-3.16-14.98-8.16-9.8-10.87Z"/>
  </g>
</svg>