<?xml version="1.0" encoding="UTF-8"?>
<svg id="_レイヤー_2" data-name="レイヤー 2" xmlns="http://www.w3.org/2000/svg" viewBox="0 0 716.36 166.04">
  <defs>
    <style>
      .cls-1 {
        fill: #231815;
      }
    </style>
  </defs>
  <g id="_レイヤー_14" data-name="レイヤー 14">
    <g>
      <path class="cls-1" d="M22.95,116.54c-13.95,0-22.95-15.45-22.95-27.75,0-16.05,6.15-45.45,26.4-45.45,9.75,0,15.75,12.6,15.75,21.15,0,9.6-7.5,22.5-18.6,22.5-2.55,0-6.9-.3-9.45-.75-.6,7.95,3.45,21.3,11.25,21.3,8.55,0,18-11.85,20.4-18.45.9-2.4,8.85-3.9,6.75,2.7-3.9,12.6-15.6,24.75-29.55,24.75ZM25.65,50.7c-5.1,0-9.15,16.2-10.5,27,2.1.15,7.65.75,9.75.75,3.45,0,9.15-6,9.15-11.85,0-4.35-1.35-15.9-8.4-15.9Z"/>
      <path class="cls-1" d="M110.69,151.34c-1.35,0-2.25-.45-3-1.95-6.6-14.55-12.3-20.1-20.85-23.4,1.35,20.7-3,40.05-20.55,40.05-11.7,0-44.25-5.7-44.25-24.75s30.45-21.45,53.4-25.2c.3-1.8,1.05-7.2.75-8.85-2.4,3.15-7.5,8.25-16.35,8.25-12,0-14.4-16.65-14.4-29.7s7.8-39.15,23.7-39.15c4.65,0,9.15,3.3,11.1,5.55,0,0,1.2-6.15,1.65-9.75.15-1.05,1.05-2.7,3.15-3l6-.75h.15c1.8,0,2.55.6,2.55,1.8v.15c-.3,26.4-4.5,47.1-6.45,75.6,11.25,1.95,26.25,21.45,26.25,32.55,0,1.95-1.65,2.55-2.85,2.55ZM73.65,123.9c-11.55-.3-41.4,9-41.4,17.55,0,10.5,25.65,16.8,32.1,16.8,9.9,0,9.45-23.4,9.45-31.8,0-.9,0-1.8-.15-2.55ZM72,54c-9.15,0-12,29.85-12,41.1,0,6.3,2.7,11.55,6.15,11.55s9.3-6.3,10.2-11.7c.6-3.9,1.8-20.7,1.8-24.75,0-4.65-.3-16.2-6.15-16.2Z"/>
      <path class="cls-1" d="M163.49,151.34c-1.35,0-2.25-.45-3-1.95-6.6-14.55-12.3-20.1-20.85-23.4,1.35,20.7-3,40.05-20.55,40.05-11.7,0-44.25-5.7-44.25-24.75s30.45-21.45,53.4-25.2c.3-1.8,1.05-7.2.75-8.85-2.4,3.15-7.5,8.25-16.35,8.25-12,0-14.4-16.65-14.4-29.7s7.8-39.15,23.7-39.15c4.65,0,9.15,3.3,11.1,5.55,0,0,1.2-6.15,1.65-9.75.15-1.05,1.05-2.7,3.15-3l6-.75h.15c1.8,0,2.55.6,2.55,1.8v.15c-.3,26.4-4.5,47.1-6.45,75.6,11.25,1.95,26.25,21.45,26.25,32.55,0,1.95-1.65,2.55-2.85,2.55ZM126.44,123.9c-11.55-.3-41.4,9-41.4,17.55,0,10.5,25.65,16.8,32.1,16.8,9.9,0,9.45-23.4,9.45-31.8,0-.9,0-1.8-.15-2.55ZM124.79,54c-9.15,0-12,29.85-12,41.1,0,6.3,2.7,11.55,6.15,11.55s9.3-6.3,10.2-11.7c.6-3.9,1.8-20.7,1.8-24.75,0-4.65-.3-16.2-6.15-16.2Z"/>
      <path class="cls-1" d="M279.44,72.75c-2.7,8.7-11.85,25.35-22.35,25.35-2.1,0-4.2-.6-6.45-1.05-6.45,9.9-14.1,18.15-26.7,18.15-16.8,0-25.95-17.25-25.95-32.85,0-20.7,14.55-37.5,35.7-37.5,6.3,0,18.15,6.15,18.15,13.65,0,.6-1.35,1.35-1.8,1.35-4.35,0-4.35-6.9-14.55-6.9-15.15,0-19.8,14.55-19.8,27.3,0,6.75,3.6,24.75,13.35,24.75,6.75,0,12.75-3.75,15.75-9.6-4.95-3.3-11.7-10.65-11.7-17.1,0-8.25,4.95-14.25,13.5-14.25,6.45,0,10.95,5.25,10.95,11.55,0,4.05-1.65,11.85-3.9,15.3,1.35.75,3,1.2,4.65,1.2,10.65,0,14.4-23.55,18.6-23.55,1.65,0,3,1.2,3,2.7,0,.45-.3,1.2-.45,1.5ZM247.49,70.65c-3,0-3.75,4.5-3.75,6.6,0,3.45,1.8,9.3,4.8,11.1,1.05-2.25,2.7-7.95,2.7-10.5,0-2.25-.9-7.2-3.75-7.2Z"/>
      <path class="cls-1" d="M296.69,117.15c-10.2,0-12.45-10.65-12.45-19.35s3-23.85,3-32.4c0-3.15-.45-6.15-4.5-6.15-1.95,0-2.7,2.1-2.85,2.7-2.25,11.55-3.9,26.55-11.1,37.65-2.1,3.3-5.1,3-5.1-1.5,0-.3,0-.75.15-1.05,2.85-7.65,7.65-27.45,9.15-34.8,1.65-7.95-4.95-6.75-4.95-12.9,0-2.4,1.35-3.9,3.9-3.9,3.9,0,8.55,4.35,15.45,4.35,4.35,0,6.9-2.25,10.95-2.25,3.6,0,7.35,5.25,7.35,8.55,0,2.85-1.95,5.55-3.15,8.1-2.7,6.9-5.85,22.65-5.85,29.7,0,4.95,1.35,16.95,5.7,16.95,4.95,0,9.75-10.35,9.75-18.9,0-3.45-4.65-6.3-4.65-9.75,0-1.65,4.05-2.55,7.2-2.55,1.65,0,3.15.3,3.45.9.75,1.35,1.5,7.35,1.5,9.15,0,12.9-9,27.45-22.95,27.45Z"/>
      <path class="cls-1" d="M426.13,103.8c-6.3,6.3-16.35,10.2-23.1,10.2-17.85,0-30.15-13.5-30.15-32.55,0-22.8,10.65-37.2,30-37.2,9.45,0,16.95,9,16.95,19.8,0,4.5-4.2,9.45-8.4,9.45-3.9,0-7.35-3.3-7.35-7.8s3.9-4.65,3.9-7.8c0-2.85-2.4-8.85-5.85-8.85-9,0-12.9,23.1-12.9,31.5,0,11.4,7.05,21.15,15.9,23.1,5.25,1.05,11.1-.45,16.5-5.7,6.45-6.45,8.4-16.35,9.6-17.4,1.05-.75,1.8-1.05,2.4-1.05,1.05,0,1.35,1.2,1.35,2.85,0,4.5-2.25,14.7-8.85,21.45Z"/>
      <path class="cls-1" d="M467.68,111c-9.9,0-10.65-12.45-10.65-19.65,0-12.45,2.4-22.35,2.4-32.7,0-2.1-1.5-3.9-3.3-3.9-4.8,0-12.3,14.1-15.45,19.8-.6,16.95,2.85,31.8,3.75,42.6.15,1.65-.9,1.95-2.7,2.4-4.5,1.35-7.95.9-12.6.6-.6-.15-2.25-1.35-2.25-3.3v-61.8c0-19.35.6-31.95,1.8-51.3,0-2.1,1.8-2.7,3.6-2.7h9c1.05,0,4.2,1.05,4.05,2.1v.15c-.6,8.55-5.7,48.45-5.1,60.45,6.15-7.95,10.65-21.6,21.45-21.45h.15c8.4,0,10.5,6.15,10.5,13.2,0,10.8-1.95,21.3-1.95,32.1,0,5.25.3,11.7,1.95,11.7,7.05,0,9.9-16.5,12.45-21.75.6-1.2,1.65-2.1,2.7-2.1,1.2,0,2.25,1.2,2.25,4.35,0,9.15-10.05,31.2-22.05,31.2Z"/>
      <path class="cls-1" d="M494.68,115.65c-7.05,0-12.45-7.05-12.45-17.4,0-14.25,1.5-26.4,1.5-42.15v-4.5c0-2.85,1.2-4.5,3.9-4.5,1.8,0,6.75.45,8.4.75,1.8.15,2.4,1.8,2.25,3.3-1.05,13.35-2.25,30.75-2.25,43.35,0,6.9,1.5,9.9,3.6,9.9,6.6,0,10.8-19.2,12.9-26.85.3-1.35,1.95-1.95,3.15-1.95,1.35,0,2.25,1.2,2.25,4.5,0,10.5-8.4,35.55-23.25,35.55ZM493.33,28.95c-4.2,0-7.95-3-8.1-8.1v-.3c-.15-3.75,3.15-7.65,8.55-7.65,5.1,0,7.95,3.15,7.95,7.8,0,5.7-4.35,8.25-8.4,8.25Z"/>
      <path class="cls-1" d="M560.08,103.8c-6.3,6.3-16.35,10.2-23.1,10.2-17.85,0-30.15-13.5-30.15-32.55,0-22.8,10.65-37.2,30-37.2,9.45,0,16.95,9,16.95,19.8,0,4.5-4.2,9.45-8.4,9.45-3.9,0-7.35-3.3-7.35-7.8s3.9-4.65,3.9-7.8c0-2.85-2.4-8.85-5.85-8.85-9,0-12.9,23.1-12.9,31.5,0,11.4,7.05,21.15,15.9,23.1,5.25,1.05,11.1-.45,16.5-5.7,6.45-6.45,8.4-16.35,9.6-17.4,1.05-.75,1.8-1.05,2.4-1.05,1.05,0,1.35,1.2,1.35,2.85,0,4.5-2.25,14.7-8.85,21.45Z"/>
      <path class="cls-1" d="M606.43,111c-12.15,0-16.05-5.1-22.5-27.45-.3-.75-.6-3.45-.9-5.55l-.75-6.45c-.15-1.35.9-2.1,1.8-2.55,6.75-2.25,15.6-6.45,15.6-12.3,0-1.8-2.4-3.9-3.75-3.9-4.5,0-15.3,8.55-17.55,12.15-1.65,14.7-2.7,35.7-2.7,50.1,0,.6-.6,1.8-1.2,1.8-2.85,0-2.85.45-5.55.45-2.55,0-7.5.75-7.5-2.7,0-36.9,3.45-74.55,5.7-111.3.15-2.4,3.75-3.3,7.65-3.3,4.5,0,6.75,1.35,6.6,3.15-.15,18.15-2.1,36-2.55,54.15,4.2-5.4,13.5-10.65,20.55-10.65s10.35,5.25,10.35,9.15c0,7.65-12,13.8-18.15,16.5,0,11.4,9.15,29.7,14.7,29.7,10.5,0,14.55-20.55,16.95-24.45.45-.9,1.2-1.2,1.95-1.2,1.35,0,2.55,1.2,2.55,3.6,0,9-10.5,31.05-21.3,31.05Z"/>
      <path class="cls-1" d="M640.33,116.54c-13.95,0-22.95-15.45-22.95-27.75,0-16.05,6.15-45.45,26.4-45.45,9.75,0,15.75,12.6,15.75,21.15,0,9.6-7.5,22.5-18.6,22.5-2.55,0-6.9-.3-9.45-.75-.6,7.95,3.45,21.3,11.25,21.3,8.55,0,18-11.85,20.4-18.45.9-2.4,8.85-3.9,6.75,2.7-3.9,12.6-15.6,24.75-29.55,24.75ZM643.03,50.7c-5.1,0-9.15,16.2-10.5,27,2.1.15,7.65.75,9.75.75,3.45,0,9.15-6,9.15-11.85,0-4.35-1.35-15.9-8.4-15.9Z"/>
      <path class="cls-1" d="M713.97,121.65c-2.7.15-8.1-1.5-9.9-2.55-2.7-1.35-8.55-5.4-8.55-17.55,0-11.25,3.45-29.1,3.45-40.2,0-1.35-.75-3.45-1.95-3.45-5.85,0-18,21.3-18,26.4,0,1.95-1.2,26.4-1.5,28.5-.45,2.85-.9,2.7-3.3,2.7-1.8,0-4.65.45-6.3-.15-1.5-.45-1.95-1.35-1.95-3.6,0-19.95,3.3-46.2,3.3-66.15,0-1.95.6-2.85,5.55-2.85,7.5,0,7.65.3,7.35,4.65s-1.65,17.1-2.1,21.45c3.75-7.2,15.3-23.7,23.4-23.7,6.3,0,8.7,5.55,8.7,10.65,0,11.4-2.4,27.15-2.85,38.55-.6,17.7,2.4,22.2,6.45,24.9,1.5.9-.15,2.25-1.8,2.4Z"/>
    </g>
  </g>
</svg>