<?xml version="1.0" encoding="UTF-8"?>
<svg id="_レイヤー_2" data-name="レイヤー 2" xmlns="http://www.w3.org/2000/svg" xmlns:xlink="http://www.w3.org/1999/xlink" viewBox="0 0 162.9 109.97">
  <defs>
    <style>
      .cls-1 {
        fill: url(#linear-gradient);
      }

      .cls-2 {
        fill: #255a62;
      }
    </style>
    <linearGradient id="linear-gradient" x1="20.21" y1="32.29" x2="144.16" y2="78.24" gradientUnits="userSpaceOnUse">
      <stop offset="0" stop-color="#618a98"/>
      <stop offset="1" stop-color="#586c83"/>
    </linearGradient>
  </defs>
  <g id="_レイヤー_113のコピー" data-name="レイヤー 113のコピー">
    <g>
      <path class="cls-2" d="M41.59,25.73c8.48-32.56,54.93-34.24,64.16-4.94.29.93,1.45,1.23,2.15.56,38.85-37.02,84.87,32.39,29.17,52.01-.44.15-.73.57-.73,1.04.11,32.62-37.75,39.89-54.14,22.26-.48-.52-1.34-.44-1.71.17-14.84,24.14-48.75,11.98-45.16-12.11.11-.72-.51-1.34-1.23-1.23C-19.65,91.91-3.55,17.01,38.82,27.38c1.22.3,2.45-.43,2.76-1.64Z"/>
      <path class="cls-1" d="M42.48,32.6c.71.38,1.58-.05,1.68-.85,1.86-14.47,15.23-26.75,29.88-27.06,14.09-.29,27.46,10.53,30.66,24.14.24,1.02,1.58,1.22,2.11.31,5.91-10.02,18.68-15.74,30.06-12.96,12.49,3.04,21.77,15.96,20.67,28.77-1.07,12.43-11.77,23.28-24.12,24.72-.64.07-1.09.62-1.03,1.26,1.05,12.63-7.5,25.53-19.64,29.3-11.55,3.59-25.11-1.46-31.82-11.43-.55-.82-1.79-.59-2.05.37-2.81,10.58-15.23,18.05-25.86,14.76-10.07-3.12-16-15.13-13.48-25.16.26-1.03-.87-1.83-1.75-1.23-8.6,5.78-22.12,3.59-28.61-4.92-7.46-9.78-5.51-24.88,3-33.76s20.76-11.44,30.31-6.27Z"/>
    </g>
  </g>
</svg>