<?xml version="1.0" encoding="UTF-8"?>
<svg id="_レイヤー_2" data-name="レイヤー 2" xmlns="http://www.w3.org/2000/svg" xmlns:xlink="http://www.w3.org/1999/xlink" viewBox="0 0 100 86">
  <defs>
    <style>
      .cls-1 {
        fill: url(#_新規スウォッチ_34-7);
      }

      .cls-2 {
        fill: url(#_新規スウォッチ_34-8);
      }

      .cls-3 {
        fill: url(#_新規スウォッチ_34-5);
      }

      .cls-4 {
        fill: url(#_新規スウォッチ_34-9);
      }

      .cls-5 {
        fill: url(#_新規スウォッチ_34-2);
      }

      .cls-6 {
        fill: url(#_新規スウォッチ_34-6);
      }

      .cls-7 {
        fill: url(#_新規スウォッチ_34-3);
      }

      .cls-8 {
        fill: url(#_新規スウォッチ_34-4);
      }

      .cls-9 {
        fill: url(#_新規スウォッチ_35-3);
      }

      .cls-10 {
        fill: url(#_新規スウォッチ_35-2);
      }

      .cls-11 {
        fill: url(#_新規スウォッチ_35-5);
      }

      .cls-12 {
        fill: url(#_新規スウォッチ_35-4);
      }

      .cls-13 {
        fill: url(#_新規スウォッチ_35-6);
      }

      .cls-14 {
        fill: url(#_新規スウォッチ_35-7);
      }

      .cls-15 {
        fill: url(#_新規スウォッチ_34);
      }

      .cls-16 {
        fill: url(#_新規スウォッチ_35);
      }
    </style>
    <linearGradient id="_新規スウォッチ_35" data-name="新規スウォッチ 35" x1="38.01" y1="6.19" x2="44.98" y2="10.71" gradientUnits="userSpaceOnUse">
      <stop offset="0" stop-color="#bfe0cf"/>
      <stop offset=".12" stop-color="#afdace"/>
      <stop offset=".36" stop-color="#85cace"/>
      <stop offset=".69" stop-color="#43b2ce"/>
      <stop offset="1" stop-color="#009ace"/>
    </linearGradient>
    <linearGradient id="_新規スウォッチ_35-2" data-name="新規スウォッチ 35" x1="26.78" y1="29.5" x2="33.75" y2="34.03" xlink:href="#_新規スウォッチ_35"/>
    <linearGradient id="_新規スウォッチ_35-3" data-name="新規スウォッチ 35" x1="14.72" y1="51.44" x2="21.69" y2="55.97" xlink:href="#_新規スウォッチ_35"/>
    <linearGradient id="_新規スウォッチ_35-4" data-name="新規スウォッチ 35" x1="2.67" y1="74.75" x2="9.64" y2="79.28" xlink:href="#_新規スウォッチ_35"/>
    <linearGradient id="_新規スウォッチ_35-5" data-name="新規スウォッチ 35" x1="23.64" y1="65.78" x2="31.74" y2="71.04" xlink:href="#_新規スウォッチ_35"/>
    <linearGradient id="_新規スウォッチ_35-6" data-name="新規スウォッチ 35" x1="50.77" y1="13.67" x2="58.86" y2="18.93" xlink:href="#_新規スウォッチ_35"/>
    <linearGradient id="_新規スウォッチ_35-7" data-name="新規スウォッチ 35" x1="65.42" y1="17.17" x2="71.98" y2="21.44" xlink:href="#_新規スウォッチ_35"/>
    <linearGradient id="_新規スウォッチ_34" data-name="新規スウォッチ 34" x1="54.46" y1="39.94" x2="61.02" y2="44.2" gradientUnits="userSpaceOnUse">
      <stop offset="0" stop-color="#e8e6c7"/>
      <stop offset=".1" stop-color="#d9dec5"/>
      <stop offset=".29" stop-color="#b3c9c3"/>
      <stop offset=".56" stop-color="#75a8be"/>
      <stop offset=".88" stop-color="#207bb8"/>
      <stop offset="1" stop-color="#006ab6"/>
    </linearGradient>
    <linearGradient id="_新規スウォッチ_34-2" data-name="新規スウォッチ 34" x1="42.95" y1="63.8" x2="49.51" y2="68.06" xlink:href="#_新規スウォッチ_34"/>
    <linearGradient id="_新規スウォッチ_34-3" data-name="新規スウォッチ 34" x1="61.37" y1="54.67" x2="66.94" y2="58.29" xlink:href="#_新規スウォッチ_34"/>
    <linearGradient id="_新規スウォッチ_34-4" data-name="新規スウォッチ 34" x1="71.23" y1="34.92" x2="76.8" y2="38.54" xlink:href="#_新規スウォッチ_34"/>
    <linearGradient id="_新規スウォッチ_34-5" data-name="新規スウォッチ 34" x1="80.55" y1="14.9" x2="86.12" y2="18.52" xlink:href="#_新規スウォッチ_34"/>
    <linearGradient id="_新規スウォッチ_34-6" data-name="新規スウォッチ 34" x1="76.55" y1="48.11" x2="81.61" y2="51.39" xlink:href="#_新規スウォッチ_34"/>
    <linearGradient id="_新規スウォッチ_34-7" data-name="新規スウォッチ 34" x1="85.6" y1="29.19" x2="90.63" y2="32.46" xlink:href="#_新規スウォッチ_34"/>
    <linearGradient id="_新規スウォッチ_34-8" data-name="新規スウォッチ 34" x1="93.55" y1="12.19" x2="98.57" y2="15.45" xlink:href="#_新規スウォッチ_34"/>
    <linearGradient id="_新規スウォッチ_34-9" data-name="新規スウォッチ 34" x1="36.79" y1="40" x2="44.89" y2="45.26" xlink:href="#_新規スウォッチ_34"/>
  </defs>
  <g id="_レイヤー_86" data-name="レイヤー 86">
    <g>
      <path class="cls-16" d="M44.46.15c-4.85,2.27-12.89,12.87-7.1,17.14,4.93,2.1,15.55-19.27,7.1-17.14Z"/>
      <path class="cls-10" d="M33.23,23.46c-4.85,2.27-12.89,12.87-7.1,17.14,4.93,2.1,15.55-19.27,7.1-17.14Z"/>
      <path class="cls-9" d="M21.17,45.4c-4.85,2.27-12.89,12.87-7.1,17.14,4.93,2.1,15.55-19.27,7.1-17.14Z"/>
      <path class="cls-12" d="M9.12,68.72c-4.85,2.27-12.89,12.87-7.1,17.14,4.93,2.1,15.55-19.27,7.1-17.14Z"/>
      <path class="cls-11" d="M31.13,58.75c-5.63,2.64-14.96,14.99-8.24,19.95,5.72,2.45,18.05-22.43,8.24-19.95Z"/>
      <path class="cls-13" d="M58.25,6.64c-5.63,2.64-14.96,14.99-8.24,19.95,5.72,2.45,18.05-22.43,8.24-19.95Z"/>
      <path class="cls-14" d="M71.22,10.73c-4.22,2.32-11.22,13.17-6.18,17.53,4.29,2.15,13.54-19.7,6.18-17.53Z"/>
      <path class="cls-15" d="M60.26,33.49c-4.22,2.32-11.22,13.17-6.18,17.53,4.29,2.15,13.54-19.7,6.18-17.53Z"/>
      <path class="cls-5" d="M48.76,57.35c-4.22,2.32-11.22,13.17-6.18,17.53,4.29,2.15,13.54-19.7,6.18-17.53Z"/>
      <path class="cls-7" d="M66.37,49.38c-3.68,1.93-9.78,10.94-5.39,14.56,3.74,1.79,11.8-16.37,5.39-14.56Z"/>
      <path class="cls-8" d="M76.23,29.63c-3.68,1.93-9.78,10.94-5.39,14.56,3.74,1.79,11.8-16.37,5.39-14.56Z"/>
      <path class="cls-3" d="M85.55,9.61c-3.68,1.93-9.78,10.94-5.39,14.56,3.74,1.79,11.8-16.37,5.39-14.56Z"/>
      <path class="cls-6" d="M80.65,43.6c-3.24,1.86-8.28,9.89-4.09,12.7,3.5,1.29,9.82-14.62,4.09-12.7Z"/>
      <path class="cls-1" d="M89.77,24.69c-3.26,1.82-8.4,9.79-4.24,12.65,3.49,1.34,9.99-14.51,4.24-12.65Z"/>
      <path class="cls-2" d="M97.71,7.69c-3.26,1.82-8.4,9.79-4.24,12.65,3.49,1.34,9.99-14.51,4.24-12.65Z"/>
      <path class="cls-4" d="M44.28,32.97c-5.63,2.64-14.96,14.99-8.24,19.95,5.72,2.45,18.05-22.43,8.24-19.95Z"/>
    </g>
  </g>
</svg>