<?xml version="1.0" encoding="UTF-8"?>
<svg id="_レイヤー_2" data-name="レイヤー 2" xmlns="http://www.w3.org/2000/svg" xmlns:xlink="http://www.w3.org/1999/xlink" viewBox="0 0 119.2 204.75">
  <defs>
    <style>
      .cls-1 {
        fill: #e39c7c;
      }

      .cls-2 {
        fill: url(#linear-gradient);
      }

      .cls-3 {
        fill: #231815;
      }

      .cls-4 {
        fill: #c27435;
      }

      .cls-5 {
        fill: #72a6c5;
      }
    </style>
    <linearGradient id="linear-gradient" x1="31.57" y1="36.29" x2="74.02" y2="203.47" gradientUnits="userSpaceOnUse">
      <stop offset="0" stop-color="#f0f3f5"/>
      <stop offset=".27" stop-color="#ecf0f3"/>
      <stop offset=".49" stop-color="#e2e9ee"/>
      <stop offset=".7" stop-color="#d0dce6"/>
      <stop offset=".9" stop-color="#b8cadb"/>
      <stop offset="1" stop-color="#a9c0d5"/>
    </linearGradient>
  </defs>
  <g id="_レイヤー_114のコピー" data-name="レイヤー 114のコピー">
    <g>
      <path class="cls-2" d="M76.11,95.36c11.71-6.1,22.24-18.71,22.24-35.76,0-20.49-17.35-37.11-38.74-37.11S20.86,39.11,20.86,59.6c0,17.05,7.32,28.64,23.68,35.76C19.21,97.26,0,122.47,0,149.64c0,30.44,26.68,55.11,59.6,55.11s59.6-24.67,59.6-55.11c0-27.16-15.13-49.74-43.1-54.28Z"/>
      <path class="cls-1" d="M60.87,81.76c-.78,0-1.43-.63-1.44-1.42-.01-.8.62-1.45,1.42-1.47.11,0,.22,0,.33,0,.79-.04,1.46.59,1.49,1.39.03.8-.59,1.46-1.39,1.49-.13,0-.26,0-.39.01,0,0-.02,0-.03,0ZM55.19,80.96c-.15,0-.29-.02-.44-.07-.12-.04-.25-.08-.37-.12-.75-.26-1.16-1.08-.9-1.83.26-.75,1.08-1.16,1.83-.9.1.04.21.07.31.1.76.24,1.18,1.05.94,1.81-.2.61-.76,1-1.37,1ZM66.88,80.68c-.59,0-1.15-.37-1.36-.96-.26-.75.13-1.57.88-1.84.1-.04.21-.07.31-.11.75-.28,1.58.1,1.86.85.28.75-.1,1.58-.85,1.86-.12.05-.24.09-.37.13-.16.06-.32.08-.48.08ZM49.87,78c-.34,0-.67-.12-.95-.36-.1-.09-.2-.18-.3-.27-.59-.54-.62-1.45-.09-2.04.54-.59,1.45-.63,2.04-.09.08.07.16.15.24.22.6.52.66,1.43.14,2.03-.29.33-.69.49-1.09.49ZM72.2,77.71c-.41,0-.83-.18-1.11-.52-.51-.61-.42-1.52.19-2.03.08-.07.17-.14.25-.21.6-.52,1.51-.46,2.03.14.52.6.46,1.51-.14,2.03-.1.09-.2.17-.3.25-.27.22-.6.33-.92.33ZM46.25,73.11c-.55,0-1.07-.31-1.31-.84-.05-.12-.11-.24-.16-.36-.31-.73.03-1.58.76-1.89.73-.31,1.58.03,1.89.76.04.1.09.2.13.3.33.72.01,1.58-.71,1.91-.19.09-.4.13-.6.13ZM76,72.96c-.22,0-.43-.05-.64-.15-.71-.35-1.01-1.22-.65-1.93.05-.1.09-.19.14-.29.34-.72,1.19-1.04,1.91-.7.72.34,1.04,1.19.7,1.91-.06.12-.11.24-.17.36-.25.51-.76.8-1.29.8Z"/>
      <circle class="cls-3" cx="45.96" cy="57.01" r="5.41"/>
      <circle class="cls-3" cx="74.8" cy="57.01" r="5.41"/>
      <path class="cls-4" d="M58.59,63.74l-6,4.8c-.11.09-.02.26.11.23,4.02-1.13,8.45-2.17,12.47-3.05.23-.05.25-.38.02-.45-2.13-.73-4.2-1.42-5.66-1.74-.33-.07-.67.01-.94.22Z"/>
      <path class="cls-5" d="M58.46,22.43c7.6,8.63,22.99,16.71,35.59,19.97,4.24-9.96,7.34-18.49,11.18-27.47.37-.87.05-1.89-.76-2.37-6.54-3.94-13.08-7.89-19.5-12.15-.93-.61-2.15-.53-2.97.22-8.06,7.29-16.09,14.57-23.54,21.8Z"/>
    </g>
  </g>
</svg>