<?xml version="1.0" encoding="UTF-8"?>
<svg id="_レイヤー_2" data-name="レイヤー 2" xmlns="http://www.w3.org/2000/svg" viewBox="0 0 100 68">
  <defs>
    <style>
      .cls-1 {
        fill: #dce5eb;
      }

      .cls-2 {
        fill: #f4ae2f;
      }

      .cls-3 {
        fill: #e8f3f9;
      }

      .cls-4 {
        fill: #f7cc2c;
      }
    </style>
  </defs>
  <g id="_レイヤー_94" data-name="レイヤー 94">
    <g>
      <path class="cls-3" d="M72.14,24.97c.37.22,2.03.92,2.42,1.13,3.7-7.98,14.83-1.97,10.25,5.52,2.52-3.07,7.68-3.41,10.57-.7,6.96,7.29-3.63,17.4-10.52,10.05.59,6.75-6.58,11.25-13.03,6.71-.01.31.64,2.12.75,2.39,1.35,3.11,12.69,2.26,14.03-5.08,17.05,5.91,18.35-21.72.83-17.46-.43-8.38-12.08-10.12-15.3-2.55Z"/>
      <path class="cls-1" d="M25.56,51.5c-3.62-7.39-12.37-5.11-12.38,2.59,0,.01-.01.02-.02,0-3.13-6.45-11.16-3.57-10.56,2.88.66,6.65,9.62,7.18,10.89.55,1.74,5.91,8.38,8.38,11.4,2.82,2.77,4.62,8.45,1.18,7.25-2.72.25-.09,2.43-.81,2.69-.86.71,6.11-6.11,10.36-10.21,7.38-3.68,3.1-9.41,1.79-11.5-2.48C8.97,67.04.22,63.76,0,56.74c-.22-7.38,8.43-10.13,12.15-6.41,1.85-6.48,12.03-6.45,14.03-.77.04.2-.54,1.79-.63,1.94Z"/>
      <path class="cls-4" d="M68.61,43.16l-.39-1.28,1.26-.67,1.12-.6,12.51-6.62-12.18-6.44-1.09-.58-1.63-.86.47-1.52.37-1.2,4.14-13.44-13.49,4.2-1.2.37-1.39.43-.72-1.37-.58-1.1L49.26,0l-6.65,12.68-.59,1.12-.61,1.16-1.47-.46-1.21-.37-13.41-4.17,4.08,13.24.37,1.19.54,1.73-1.82.96-1.12.59-11.96,6.33,11.73,6.21,1.1.58,2.07,1.1-.72,2.32-.36,1.18-3.91,12.66,13.17-4.09,1.23-.38,1.69-.53.72,1.37.58,1.11,6.55,12.48,6.61-12.6.58-1.12.66-1.25,1.38.43,1.19.37,13.52,4.21-4.22-13.67-.37-1.2ZM57.29,37.34l-4.7,4.72h-6.65l-4.7-4.72v-6.68l4.7-4.72h6.65l4.7,4.72v6.68Z"/>
      <ellipse class="cls-2" cx="49.12" cy="34.02" rx="16.79" ry="16.87"/>
    </g>
  </g>
</svg>