<?xml version="1.0" encoding="UTF-8"?>
<svg xmlns="http://www.w3.org/2000/svg" viewBox="0 0 61 100">
  <defs>
    <style>
      .cls-1 {
        fill: #fbdf26;
      }

      .cls-2 {
        isolation: isolate;
      }

      .cls-3 {
        opacity: .68;
      }

      .cls-3, .cls-4 {
        fill: #a64193;
        mix-blend-mode: multiply;
      }

      .cls-4 {
        opacity: .69;
      }
    </style>
  </defs>
  <g class="cls-2">
    <g id="_レイヤー_2" data-name="レイヤー 2">
      <g id="_レイヤー_81" data-name="レイヤー 81">
        <g id="_レイヤー_85" data-name="レイヤー 85">
          <path class="cls-1" d="M60.94,54.06c-2.17,3.76-11.63,16.28-16.51,22.02-.13.16-.38,0-.29-.19,2.22-4.6,6.82-13.14,7.72-15.17.07-.16-.07-.33-.24-.29-2.09.53-9.84,3-12.56,3.64-.34.08-.6-.28-.42-.58,1.88-3.13,8.59-15.1,10.14-17.66.06-.1.03-.21-.05-.27-.05-.04-.12-.06-.2-.04-3.19,1.01-17.93,6.49-21.57,7.85-.54.2-.99.56-1.32,1.02-1.71,2.46-6.94,10.33-7.17,10.58,6.62-1.81,10.55-3.14,17.9-5.14.38-.1.69.32.46.64-3.86,5.41-27.13,30.03-36.5,39.46-.17.17-.43-.06-.28-.25,6.62-8.45,20.33-26.27,22.49-28.74.08-.09,0-.24-.13-.21-2.35.55-13.51,4.11-17.23,5.13-.38.11-.68-.33-.44-.65,5.25-6.88,9.93-12.62,15.2-19.55.13-.17-.04-.4-.24-.34-1.55.5-4.38,1.32-7.68,2.38-.36.11-.65-.31-.41-.6,3.23-3.79,9.91-11.28,15.5-17.61,3.99-4.52,7.43-8.44,8.66-9.98.16-.2-.04-.49-.29-.41-2.85.96-12.7,3.71-21.36,6.05-5,1.35-9.6,2.57-12.24,3.23-.58.15-.96-.59-.51-.98C9.27,30.75,41,3.97,46.11.03c.11-.09.26.06.18.17-5.18,6.79-20.71,23.94-24.32,27.64-.04.04-.05.07-.06.11-.04.16.11.34.3.29,3.93-1.06,18.42-4.89,24.23-6.47.68-.19,1.17.63.69,1.14-4.87,5.14-8.69,9.38-12.05,13.18-3.31,3.74-6.18,7.06-9.16,10.4-.1.12.02.29.17.24,11.43-4.18,16.06-5.84,31.27-10.65.36-.11.69.06.85.33.11.19.13.44.01.67-1.85,3.65-6.63,12.95-10.64,19.28-.1.15.05.34.23.29,5.38-1.63,6.53-1.82,12.58-3.29.41-.1.75.34.54.7Z"/>
          <path class="cls-4" d="M60.94,54.06c-2.17,3.76-11.63,16.28-16.51,22.02-.13.16-.38,0-.29-.19,2.22-4.6,6.82-13.14,7.72-15.17.07-.16-.07-.33-.24-.29-2.09.53-9.84,3-12.56,3.64-.34.08-.6-.28-.42-.58,1.88-3.13,8.59-15.1,10.14-17.66.06-.1.03-.21-.05-.27.78-.68,8.37-8.36,9.49-9.16.11.19.13.44.01.67-1.85,3.65-6.63,12.95-10.64,19.28-.1.15.05.34.23.29,5.38-1.63,6.53-1.82,12.58-3.29.41-.1.75.34.54.7Z"/>
          <path class="cls-3" d="M47.13,22.91c-4.87,5.14-8.69,9.38-12.05,13.18-.47.59-10.11,7.48-13.16,9.31,3.99-4.52,12.64-14.32,13.87-15.87.16-.2-.04-.49-.29-.41-2.85.96-12.7,3.71-21.36,6.05,2.54-2.48,5.14-4.92,7.77-7.22-.04.16.11.34.3.29,3.93-1.06,18.42-4.89,24.23-6.47.68-.19,1.17.63.69,1.14Z"/>
        </g>
      </g>
    </g>
  </g>
</svg>